
<svg width="1536px" height="1536px" viewBox="-275 -701 1536 1536" version="1.1" xmlns="http://www.w3.org/2000/svg" xmlns:xlink="http://www.w3.org/1999/xlink">
    <!-- Generator: Sketch 40.3 (33839) - http://www.bohemiancoding.com/sketch -->
    <desc>Created with Sketch.</desc>
    <defs></defs>
    <path d="M1261,67 C1261,171 1240.66667,270.333333 1200,365 C1159.33333,459.666667 1104.66667,541.333333 1036,610 C967.333333,678.666667 885.666667,733.333333 791,774 C696.333333,814.666667 597,835 493,835 C378.333333,835 269.333333,810.833333 166,762.5 C62.6666667,714.166667 -25.3333333,646 -98,558 C-102.666667,551.333333 -104.833333,543.833333 -104.5,535.5 C-104.166667,527.166667 -101.333333,520.333333 -96,515 L41,377 C47.6666667,371 56,368 66,368 C76.6666667,369.333333 84.3333333,373.333333 89,380 C137.666667,443.333333 197.333333,492.333333 268,527 C338.666667,561.666667 413.666667,579 493,579 C562.333333,579 628.5,565.5 691.5,538.5 C754.5,511.5 809,475 855,429 C901,383 937.5,328.5 964.5,265.5 C991.5,202.5 1005,136.333333 1005,67 C1005,-2.33333333 991.5,-68.5 964.5,-131.5 C937.5,-194.5 901,-249 855,-295 C809,-341 754.5,-377.5 691.5,-404.5 C628.5,-431.5 562.333333,-445 493,-445 C427.666667,-445 365,-433.166667 305,-409.5 C245,-385.833333 191.666667,-352 145,-308 L282,-170 C302.666667,-150 307.333333,-127 296,-101 C284.666667,-74.3333333 265,-61 237,-61 L-211,-61 C-228.333333,-61 -243.333333,-67.3333333 -256,-80 C-268.666667,-92.6666667 -275,-107.666667 -275,-125 L-275,-573 C-275,-601 -261.666667,-620.666667 -235,-632 C-209,-643.333333 -186,-638.666667 -166,-618 L-36,-489 C35.3333333,-556.333333 116.833333,-608.5 208.5,-645.5 C300.166667,-682.5 395,-701 493,-701 C597,-701 696.333333,-680.666667 791,-640 C885.666667,-599.333333 967.333333,-544.666667 1036,-476 C1104.66667,-407.333333 1159.33333,-325.666667 1200,-231 C1240.66667,-136.333333 1261,-37 1261,67 L1261,67 Z" id="Shape" stroke="none" fill="#000000" fill-rule="evenodd" transform="translate(493.000000, 67.000000) scale(-1, 1) translate(-493.000000, -67.000000) "></path>
</svg>


