<?xml version="1.0" encoding="UTF-8" standalone="no"?>
<svg width="30px" height="30px" viewBox="0 0 30 30" version="1.1" xmlns="http://www.w3.org/2000/svg" xmlns:xlink="http://www.w3.org/1999/xlink">
    <!-- Generator: Sketch 40.3 (33839) - http://www.bohemiancoding.com/sketch -->
    <title>Shape</title>
    <desc>Created with Sketch.</desc>
    <defs></defs>
    <g id="Page-1" stroke="none" stroke-width="1" fill="none" fill-rule="evenodd">
        <g id="Desktop" fill="#000000">
            <path d="M30,24.1414141 C30,24.8148148 29.7643098,25.3872054 29.2929293,25.8585859 L25.8585859,29.2929293 C25.3872054,29.7643098 24.8148148,30 24.1414141,30 C23.4680135,30 22.8956229,29.7643098 22.4242424,29.2929293 L15,21.8686869 L7.57575758,29.2929293 C7.1043771,29.7643098 6.53198653,30 5.85858586,30 C5.18518519,30 4.61279461,29.7643098 4.14141414,29.2929293 L0.707070707,25.8585859 C0.235690236,25.3872054 0,24.8148148 0,24.1414141 C0,23.4680135 0.235690236,22.8956229 0.707070707,22.4242424 L8.13131313,15 L0.707070707,7.57575758 C0.235690236,7.1043771 0,6.53198653 0,5.85858586 C0,5.18518519 0.235690236,4.61279461 0.707070707,4.14141414 L4.14141414,0.707070707 C4.61279461,0.235690236 5.18518519,0 5.85858586,0 C6.53198653,0 7.1043771,0.235690236 7.57575758,0.707070707 L15,8.13131313 L22.4242424,0.707070707 C22.8956229,0.235690236 23.4680135,0 24.1414141,0 C24.8148148,0 25.3872054,0.235690236 25.8585859,0.707070707 L29.2929293,4.14141414 C29.7643098,4.61279461 30,5.18518519 30,5.85858586 C30,6.53198653 29.7643098,7.1043771 29.2929293,7.57575758 L21.8686869,15 L29.2929293,22.4242424 C29.7643098,22.8956229 30,23.4680135 30,24.1414141 L30,24.1414141 Z" id="Shape"></path>
        </g>
    </g>
</svg>