<?xml version="1.0" encoding="UTF-8" standalone="no"?>
<svg width="100px" height="100px" viewBox="0 0 100 100" version="1.1" xmlns="http://www.w3.org/2000/svg" xmlns:xlink="http://www.w3.org/1999/xlink">
    <!-- Generator: Sketch 40.3 (33839) - http://www.bohemiancoding.com/sketch -->
    <title>Artboard</title>
    <desc>Created with Sketch.</desc>
    <defs></defs>
    <g id="Page-1" stroke="none" stroke-width="1" fill="none" fill-rule="evenodd">
        <g id="Artboard" fill="#000000">
            <path d="M100,50 C100,56.7708333 98.6762153,63.2378472 96.0286458,69.4010417 C93.3810764,75.5642361 89.8220486,80.8810764 85.3515625,85.3515625 C80.8810764,89.8220486 75.5642361,93.3810764 69.4010417,96.0286458 C63.2378472,98.6762153 56.7708333,100 50,100 C42.5347222,100 35.4383681,98.4266493 28.7109375,95.2799479 C21.9835069,92.1332465 16.2543403,87.6953125 11.5234375,81.9661458 C11.2196181,81.5321181 11.078559,81.0438368 11.1002604,80.5013021 C11.1219618,79.9587674 11.3064236,79.5138889 11.6536458,79.1666667 L20.5729167,70.1822917 C21.0069444,69.7916667 21.5494792,69.5963542 22.2005208,69.5963542 C22.8949653,69.6831597 23.3940972,69.9435764 23.6979167,70.3776042 C26.8663194,74.5008681 30.7508681,77.6909722 35.3515625,79.9479167 C39.9522569,82.2048611 44.8350694,83.3333333 50,83.3333333 C54.5138889,83.3333333 58.8216146,82.4544271 62.9231771,80.6966146 C67.0247396,78.9388021 70.5729167,76.5625 73.5677083,73.5677083 C76.5625,70.5729167 78.9388021,67.0247396 80.6966146,62.9231771 C82.4544271,58.8216146 83.3333333,54.5138889 83.3333333,50 C83.3333333,45.4861111 82.4544271,41.1783854 80.6966146,37.0768229 C78.9388021,32.9752604 76.5625,29.4270833 73.5677083,26.4322917 C70.5729167,23.4375 67.0247396,21.0611979 62.9231771,19.3033854 C58.8216146,17.5455729 54.5138889,16.6666667 50,16.6666667 C45.7465278,16.6666667 41.6666667,17.437066 37.7604167,18.9778646 C33.8541667,20.5186632 30.3819444,22.7213542 27.34375,25.5859375 L36.2630208,34.5703125 C37.6085069,35.8723958 37.9123264,37.3697917 37.1744792,39.0625 C36.4366319,40.7986111 35.15625,41.6666667 33.3333333,41.6666667 L4.16666667,41.6666667 C3.03819444,41.6666667 2.06163194,41.2543403 1.23697917,40.4296875 C0.412326389,39.6050347 0,38.6284722 0,37.5 L0,8.33333333 C0,6.51041667 0.868055556,5.23003472 2.60416667,4.4921875 C4.296875,3.75434028 5.79427083,4.05815972 7.09635417,5.40364583 L15.5598958,13.8020833 C20.2039931,9.41840278 25.5099826,6.02213542 31.4778646,3.61328125 C37.4457465,1.20442708 43.6197917,0 50,0 C56.7708333,0 63.2378472,1.32378472 69.4010417,3.97135417 C75.5642361,6.61892361 80.8810764,10.1779514 85.3515625,14.6484375 C89.8220486,19.1189236 93.3810764,24.4357639 96.0286458,30.5989583 C98.6762153,36.7621528 100,43.2291667 100,50 L100,50 Z" id="Shape"></path>
        </g>
    </g>
</svg>